# xmcd CD database file
#
# Track frame offsets:
#	150
#	24792
#	47346
#	64937
#	82879
#	102333
#	120512
#	143030
#	157908
#	175334
#	193826
#	211930
#
# Disc length: 3094 seconds
#
# Revision: 0
# Processed by: cddbd v1.5.2PL0 Copyright (c) Steve Scherf et al.
# Submitted via: CDex 1.70beta2
#
DISCID=930c140c
DTITLE=Bandari - Bird Song
DYEAR=2002
DGENRE=New Age
TTITLE0=Nightingale
TTITLE1=List Liebes Traum
TTITLE2=Alover's Concerto
TTITLE3=Petite Fleur
TTITLE4=Somewhere Out There 1.
TTITLE5=Somewhere Out There 2.
TTITLE6=I Just Called To Say I Love You
TTITLE7=Mona Lisa
TTITLE8=What A Wonderful
TTITLE9=Ballerina Girl
TTITLE10=To Love Again
TTITLE11=Endless Love
EXTD=YEAR: 2002
EXTT0=
EXTT1=
EXTT2=
EXTT3=
EXTT4=
EXTT5=
EXTT6=
EXTT7=
EXTT8=
EXTT9=
EXTT10=
EXTT11=
PLAYORDER=
